<?xml version="1.0" encoding="utf-8"?>
<!-- Generator: Adobe Illustrator 24.3.1, SVG Export Plug-In . SVG Version: 6.00 Build 0)  -->
<svg version="1.1" id="Layer_1" xmlns="http://www.w3.org/2000/svg" xmlns:xlink="http://www.w3.org/1999/xlink" x="0px" y="0px"
	 viewBox="0 0 132.2 24.4" style="enable-background:new 0 0 132.2 24.4;" xml:space="preserve">
<style type="text/css">
	.st0{fill:#FFFFFF;}
</style>
<path class="st0" d="M18.9,16.8c-1.6,2-4.1,3.2-6.8,3.2s-5.2-1.2-6.8-3.2c-0.1-0.2-0.2-0.3-0.2-0.5s0.1-0.4,0.3-0.5
	c0.1-0.1,0.3-0.2,0.5-0.2s0.4,0.1,0.6,0.3c1.3,1.6,3.4,2.6,5.7,2.6c2.2,0,4.4-1,5.7-2.6c0.1-0.2,0.3-0.3,0.6-0.3
	c0.2,0,0.3,0.1,0.5,0.2c0.2,0.1,0.2,0.3,0.3,0.5C19.1,16.5,19.1,16.7,18.9,16.8 M23.3,11.9c0-0.4-0.2-0.7-0.4-0.9L13,1.4
	C12.8,1.1,12.4,1,12.1,1c-0.3,0-0.7,0.1-0.9,0.4L7.5,5V4.4c0-0.7-0.6-1.2-1.2-1.2H4.9c-0.7,0-1.2,0.6-1.2,1.2v4.4L1.4,11
	C1.1,11.3,1,11.6,1,11.9c0,0.7,0.6,1.2,1.2,1.2h1.3v8.4c0,0.7,0.6,1.2,1.2,1.2h6.5h8.1c0.7,0,1.2-0.6,1.2-1.2v-8.4H22
	C22.7,13.2,23.3,12.6,23.3,11.9 M39.7,21.9V8.4c0-0.6-0.3-0.9-0.9-0.9h-1c-0.6,0-0.9,0.3-0.9,0.9v5.4c-1.1,0.6-2.2,0.9-3.4,0.9
	c-1.3,0-2.5-0.4-3.6-1V8.4c0-0.6-0.3-0.9-0.9-0.9h-1c-0.6,0-0.9,0.3-0.9,0.9v13.5c0,0.6,0.3,0.9,0.9,0.9h1c0.6,0,0.9-0.3,0.9-0.9
	v-5.6c1.2,0.6,2.4,0.9,3.6,0.9c1.1,0,2.3-0.3,3.4-0.8v5.4c0,0.6,0.3,0.9,0.9,0.9h1C39.4,22.8,39.7,22.5,39.7,21.9 M49.8,17.3
	c0,2-1.5,3.4-3.3,3.4s-3.2-1.4-3.2-3.4s1.5-3.4,3.2-3.4C48.3,13.9,49.8,15.3,49.8,17.3 M52.5,17.3c0-3.4-2.7-5.8-6-5.8s-6,2.4-6,5.8
	s2.7,5.8,6,5.8C49.8,23,52.5,20.7,52.5,17.3 M70,21.9v-6.2c0-2.9-1.3-4.2-3.6-4.2c-1.7,0-3.1,1.1-3.7,2.3l0,0
	c-0.4-1.5-1.5-2.3-3.2-2.3s-3,1.2-3.6,2.3l0,0c0,0,0-0.3,0-0.5v-0.7c0-0.6-0.3-0.9-0.9-0.9h-0.8c-0.6,0-0.9,0.3-0.9,0.9v9.2
	c0,0.6,0.3,0.9,0.9,0.9h0.9c0.6,0,0.9-0.3,0.9-0.9v-4c0-1.8,0.9-3.8,2.8-3.8c1.3,0,1.5,1,1.5,2.2v5.6c0,0.6,0.3,0.9,0.9,0.9h0.9
	c0.6,0,0.9-0.3,0.9-0.9v-4c0-1.9,0.9-3.8,2.8-3.8c1.3,0,1.5,0.9,1.5,2.2v5.6c0,0.6,0.3,0.9,0.9,0.9h0.9C69.7,22.8,70,22.5,70,21.9
	 M73.3,16.7c-0.1-1.5,0.6-2.7,1.9-3c1.2-0.3,2.3,0.3,2.8,1.8c-0.7-0.1-1.5,0-2.4,0.2C74.6,15.9,73.9,16.3,73.3,16.7 M81.3,20.6
	c0.4-0.4,0.4-0.8,0-1.2L80.9,19c-0.4-0.4-0.6-0.5-1.1-0.1c-0.4,0.4-1.2,1.2-2.2,1.4c-1.9,0.5-3.4-0.3-4-2.1l0,0
	c0.9,0.1,2.2,0,3.6-0.4c1.6-0.4,2.6-1,3.2-1.6l0,0c0.2-0.2,0.4-0.6,0.3-0.9c-0.8-2.9-3-4.6-6-3.8c-3.2,0.9-4.7,3.7-3.9,7
	c0.8,3,3.7,5,7.1,4C79.6,22.2,80.7,21.3,81.3,20.6 M84.8,11.5c0-1,0.9-1.7,2.3-1.7c1.2,0,2,0.5,2.6,0.8c0.4,0.2,0.9,0.3,1.2-0.3
	l0.4-0.7c0.3-0.5,0.2-0.9-0.3-1.2c-0.6-0.5-2.1-1.2-3.9-1.2c-2.9,0-5.1,1.7-5.1,4.4c0,4.8,7.1,4.2,7.1,7.1c0,1-0.9,1.7-2.3,1.7
	c-1.5,0-2.6-0.8-3.1-1.1c-0.5-0.3-0.9-0.3-1.2,0.2L82,20.2c-0.4,0.6-0.2,0.9,0.1,1.2c0.7,0.6,2.5,1.6,4.7,1.6c3.2,0,5-2,5-4.5
	C91.9,13.6,84.8,14.4,84.8,11.5 M100.1,15.9c-0.6-0.2-1.4-0.3-2.4-0.3s-1.8,0.2-2.5,0.5c0.2-1.5,1.1-2.5,2.5-2.5
	C99,13.5,100,14.4,100.1,15.9 M102.8,16.5c-0.1-3-2-5.2-5.1-5c-3.3,0.1-5.4,2.6-5.3,6c0.1,3.1,2.5,5.6,6.1,5.5
	c1.7-0.1,3-0.8,3.7-1.3c0.5-0.3,0.5-0.7,0.2-1.2l-0.3-0.4c-0.3-0.5-0.5-0.6-1-0.3c-0.5,0.3-1.4,0.9-2.4,0.9c-1.9,0.1-3.2-1-3.5-2.9
	l0,0c0.9,0.3,2.1,0.5,3.6,0.4c1.6-0.1,2.8-0.4,3.5-0.9l0,0C102.7,17.2,102.9,16.9,102.8,16.5 M110.2,13.5v-0.8
	c0-0.6-0.2-0.9-0.8-0.9c-1.5,0-2.7,1.5-3.2,2.8l0,0c0,0,0.1-0.3,0.1-0.8v-1c0-0.6-0.3-0.9-0.9-0.9h-0.8c-0.6,0-0.9,0.3-0.9,0.9V22
	c0,0.6,0.3,0.9,0.9,0.9h0.9c0.6,0,0.9-0.3,0.9-0.9v-3.5c0-2,1-4,3-4C109.9,14.4,110.2,14,110.2,13.5 M121.1,12.8
	c0.2-0.6-0.1-1-0.7-1h-1c-0.5,0-0.9,0.2-1,0.8l-2,6.1c-0.2,0.6-0.4,1.7-0.4,1.7l0,0c0,0-0.2-1-0.4-1.7l-2-6.1
	c-0.1-0.5-0.5-0.8-1-0.8h-1c-0.7,0-0.9,0.4-0.7,1l3.3,9.2c0.1,0.5,0.5,0.7,1,0.7h1.7c0.5,0,0.8-0.2,1-0.7L121.1,12.8z M128.3,15.9
	c-0.6-0.2-1.4-0.3-2.4-0.3s-1.8,0.2-2.5,0.5c0.2-1.5,1.1-2.5,2.5-2.5C127.2,13.5,128.2,14.4,128.3,15.9 M131,16.5
	c-0.1-3-2-5.2-5.1-5c-3.3,0.1-5.4,2.6-5.3,6c0.1,3.1,2.5,5.6,6.1,5.5c1.7-0.1,3-0.8,3.7-1.3c0.5-0.3,0.5-0.7,0.2-1.2l-0.3-0.4
	c-0.3-0.5-0.5-0.6-1-0.3c-0.5,0.3-1.4,0.9-2.4,0.9c-1.9,0.1-3.2-1-3.5-2.9l0,0c0.9,0.3,2.1,0.5,3.6,0.4c1.6-0.1,2.8-0.4,3.5-0.9l0,0
	C130.8,17.2,131,16.9,131,16.5"/>
</svg>
