<?xml version="1.0" encoding="utf-8"?>
<!-- Generator: Adobe Illustrator 24.3.1, SVG Export Plug-In . SVG Version: 6.00 Build 0)  -->
<svg version="1.1" id="Layer_1" xmlns="http://www.w3.org/2000/svg" xmlns:xlink="http://www.w3.org/1999/xlink" x="0px" y="0px"
	 viewBox="0 0 135.5 50" style="enable-background:new 0 0 135.5 50;" xml:space="preserve">
<style type="text/css">
	.st0{clip-path:url(#SVGID_2_);fill:#E7342C;}
	.st1{fill:#E7342C;}
</style>
<g>
	<g>
		<g>
			<defs>
				<rect id="SVGID_1_" x="1" y="1" width="134" height="48"/>
			</defs>
			<clipPath id="SVGID_2_">
				<use xlink:href="#SVGID_1_"  style="overflow:visible;"/>
			</clipPath>
			<path class="st0" d="M38,37.3L38,37.3c-0.1,0,0-0.3,0-0.6v-0.9c0-0.8-0.4-1.2-1.2-1.2h-1.1c-0.8,0-1.2,0.4-1.2,1.2v11.7
				c0,0.8,0.4,1.2,1.2,1.2H37c0.8,0,1.2-0.4,1.2-1.2v-5.1c0-2.3,1.2-4.9,3.7-4.9c1.6,0,1.9,1.3,1.9,2.8v7.2c0,0.8,0.4,1.2,1.2,1.2
				h1.2c0.8,0,1.2-0.4,1.2-1.2v-5.1c0-2.5,1.2-4.9,3.6-4.9c1.6,0,1.9,1.2,1.9,2.8v7.2c0,0.8,0.4,1.2,1.2,1.2h1.2
				c0.8,0,1.2-0.4,1.2-1.2v-7.9c0-3.7-1.7-5.4-4.6-5.4c-2.2,0-4,1.4-4.8,2.9h-0.1c-0.5-1.9-2-2.9-4.1-2.9
				C40.4,34.3,38.7,35.9,38,37.3 M17.1,47.5V30.3c0-0.8-0.4-1.2-1.2-1.2h-1.2c-0.8,0-1.2,0.4-1.2,1.2v7c-1.4,0.8-2.8,1.2-4.4,1.2
				c-1.6,0-3.2-0.5-4.7-1.3v-6.8c0-0.8-0.4-1.2-1.2-1.2H2.2c-0.8,0-1.2,0.4-1.2,1.2v17.3c0,0.8,0.4,1.2,1.2,1.2h1.2
				c0.8,0,1.2-0.4,1.2-1.2v-7.2c1.5,0.7,3,1.1,4.7,1.1c1.5,0,3-0.3,4.4-0.9v7c0,0.8,0.4,1.2,1.2,1.2H16
				C16.7,48.7,17.1,48.3,17.1,47.5 M30.1,41.7c0,2.6-1.9,4.4-4.2,4.4s-4.2-1.8-4.2-4.4c0-2.6,1.9-4.4,4.2-4.4S30.1,39,30.1,41.7
				 M25.9,34.3c-4.3,0-7.8,3-7.8,7.4s3.4,7.4,7.8,7.4s7.8-3,7.8-7.4S30.2,34.3,25.9,34.3 M54.2,21.3c-2,2.6-5.3,4-8.8,4
				c-3.5,0-6.8-1.6-8.8-4c-0.2-0.2-0.2-0.5-0.2-0.7c0-0.2,0.2-0.5,0.3-0.6c0.2-0.2,0.4-0.2,0.6-0.2c0.3,0,0.5,0.2,0.7,0.4
				c1.7,2.1,4.4,3.3,7.3,3.3s5.6-1.2,7.3-3.3c0.2-0.2,0.5-0.4,0.7-0.4s0.4,0.1,0.6,0.2c0.2,0.2,0.3,0.4,0.3,0.6
				C54.4,20.9,54.4,21.1,54.2,21.3 M59.8,15c0-0.5-0.2-0.9-0.5-1.2L46.5,1.5C46.3,1.2,45.8,1,45.4,1c-0.5,0-0.9,0.2-1.2,0.5
				l-4.8,4.7V5.4c0-0.9-0.7-1.6-1.6-1.6H36c-0.9,0-1.6,0.7-1.6,1.6V11l-2.9,2.9c-0.3,0.3-0.5,0.7-0.5,1.2c0,0.9,0.7,1.6,1.6,1.6h1.7
				v10.7c0,0.9,0.7,1.6,1.6,1.6h8.4h10.5c0.9,0,1.6-0.7,1.6-1.6V16.7h1.8C59.1,16.6,59.8,15.9,59.8,15 M60.4,40.9
				c-0.2-1.9,0.8-3.4,2.5-3.9c1.6-0.4,3,0.4,3.6,2.3c-0.9-0.1-1.9,0-3,0.3C62.2,39.8,61.2,40.3,60.4,40.9 M70.8,46
				c0.5-0.5,0.5-1.1,0-1.6l-0.5-0.4c-0.5-0.5-0.8-0.5-1.4-0.1c-0.5,0.5-1.6,1.6-2.8,1.9c-2.4,0.6-4.4-0.4-5.2-2.7l0,0
				c1.2,0.2,2.8,0.1,4.7-0.5c2-0.5,3.4-1.2,4.1-2.1l0,0c0.3-0.3,0.5-0.8,0.4-1.2c-1-3.7-3.9-5.9-7.8-4.9c-4.1,1.1-6.1,4.8-5,9
				c1,3.9,4.7,6.4,9.3,5.1C68.6,48,70,46.7,70.8,46 M75.4,34.2c0-1.3,1.2-2.2,3-2.2c1.6,0,2.6,0.6,3.4,1.1c0.5,0.3,1.2,0.4,1.6-0.4
				l0.5-0.9c0.3-0.6,0.2-1.2-0.4-1.6c-0.9-0.6-2.7-1.5-5.1-1.5c-3.7,0-6.6,2.3-6.6,5.7c0,6.1,9.2,5.4,9.2,9.1c0,1.3-1.1,2.3-3,2.3
				c-1.9,0-3.3-1-4-1.4c-0.7-0.4-1.2-0.4-1.6,0.2l-0.5,0.8c-0.5,0.8-0.3,1.2,0.2,1.6c0.9,0.8,3.3,2,6.1,2c4.1,0,6.5-2.6,6.5-5.8
				C84.6,36.9,75.4,38,75.4,34.2 M95.1,39.9c-0.8-0.3-1.9-0.5-3-0.4c-1.2,0.1-2.3,0.3-3.2,0.7c0.2-1.9,1.5-3.2,3.3-3.3
				C93.7,36.9,94.9,38,95.1,39.9 M98.6,40.7c-0.2-3.9-2.6-6.6-6.5-6.5c-4.2,0.2-7,3.3-6.8,7.7c0.2,4,3.2,7.2,7.9,7.1
				c2.2-0.1,3.8-1,4.7-1.6c0.6-0.4,0.7-0.9,0.3-1.6l-0.4-0.5c-0.4-0.6-0.7-0.8-1.3-0.4c-0.6,0.5-1.8,1.2-3.1,1.2
				c-2.5,0.1-4.2-1.3-4.5-3.8l0,0c1.2,0.5,2.7,0.6,4.7,0.5c2.1-0.1,3.6-0.5,4.5-1.1l0,0C98.4,41.5,98.6,41.1,98.6,40.7 M108.1,36.7
				v-1.1c0-0.8-0.3-1.2-1.1-1.2c-2,0-3.6,1.9-4.1,3.6h-0.1c0,0,0.1-0.5,0.1-0.9v-1.3c0-0.8-0.4-1.2-1.2-1.2h-1.1
				c-0.8,0-1.2,0.4-1.2,1.2v11.7c0,0.8,0.4,1.2,1.2,1.2h1.2c0.8,0,1.2-0.4,1.2-1.2V43c0-2.6,1.2-5.1,3.8-5.1
				C107.7,37.9,108.1,37.5,108.1,36.7 M122.2,35.9c0.3-0.8-0.1-1.3-0.9-1.3h-1.3c-0.7,0-1.1,0.3-1.3,0.9l-2.6,7.8
				c-0.3,0.9-0.5,2.1-0.5,2.1h-0.1c0,0-0.2-1.3-0.5-2.1l-2.6-7.8c-0.2-0.7-0.6-0.9-1.3-0.9h-1.3c-0.9,0-1.2,0.5-0.9,1.3l4.3,11.8
				c0.2,0.7,0.6,0.9,1.3,0.9h2.2c0.7,0,1.1-0.3,1.3-0.9L122.2,35.9z M131.5,39.9c-0.8-0.3-1.9-0.5-3-0.4c-1.2,0.1-2.3,0.3-3.2,0.7
				c0.2-1.9,1.5-3.2,3.3-3.3C130.1,36.9,131.3,38,131.5,39.9 M135,40.7c-0.2-3.9-2.6-6.6-6.5-6.5c-4.2,0.2-7,3.3-6.8,7.7
				c0.2,4,3.2,7.2,7.9,7.1c2.2-0.1,3.8-1,4.7-1.6c0.6-0.4,0.7-0.9,0.3-1.6l-0.4-0.5c-0.4-0.6-0.7-0.8-1.3-0.4
				c-0.6,0.5-1.8,1.2-3.1,1.2c-2.5,0.1-4.2-1.3-4.5-3.8l0,0c1.2,0.5,2.7,0.6,4.7,0.5c2.1-0.1,3.6-0.5,4.5-1.1l0,0
				C134.7,41.5,135,41.1,135,40.7"/>
		</g>
	</g>
	<g>
		<path class="st1" d="M133,28.8c1.1,0,1.9,0.9,1.9,2c0,1.1-0.9,2-1.9,2c-1.1,0-1.9-0.9-1.9-2C131.1,29.6,131.9,28.8,133,28.8z
			 M133,32.3c0.9,0,1.5-0.7,1.5-1.6s-0.6-1.6-1.5-1.6s-1.5,0.7-1.5,1.6S132.2,32.3,133,32.3z M132.3,29.9c0-0.2,0.1-0.2,0.2-0.2h0.6
			c0.4,0,0.6,0.2,0.6,0.6c0,0.3-0.2,0.5-0.3,0.5l0,0c0,0,0,0,0.1,0.1l0.2,0.5c0.1,0.2,0,0.2-0.1,0.2h-0.1c-0.2,0-0.2-0.1-0.2-0.2
			l-0.2-0.5h-0.2v0.5c0,0.2-0.1,0.2-0.2,0.2l0,0c-0.2,0-0.2-0.1-0.2-0.2v-1.6H132.3z M133,30.6c0.2,0,0.3-0.1,0.3-0.3
			c0-0.2-0.1-0.3-0.3-0.3h-0.2v0.6C132.8,30.6,133,30.6,133,30.6z"/>
	</g>
</g>
</svg>
