<?xml version="1.0" encoding="utf-8"?>
<!-- Generator: Adobe Illustrator 24.3.1, SVG Export Plug-In . SVG Version: 6.00 Build 0)  -->
<svg version="1.1" id="Layer_1" xmlns="http://www.w3.org/2000/svg" xmlns:xlink="http://www.w3.org/1999/xlink" x="0px" y="0px"
	 viewBox="0 0 26 26" style="enable-background:new 0 0 26 26;" xml:space="preserve">
<style type="text/css">
	.st0{fill:#FFFFFF;}
</style>
<path class="st0" d="M26,13c0-0.4-0.2-0.8-0.5-1.1L14,0.8c-0.2-0.2-0.6-0.4-1-0.4c-0.4,0-0.7,0.1-1,0.4L7.6,5V4.2
	c0-0.8-0.6-1.5-1.5-1.5H4.5C3.7,2.8,3,3.4,3,4.2v5.2L0.4,12C0.2,12.2,0,12.6,0,13c0,0.8,0.6,1.5,1.5,1.5H3v9.7
	c0,0.8,0.6,1.5,1.5,1.5H12h9.5c0.8,0,1.5-0.6,1.5-1.5v-9.7h1.6C25.4,14.4,26,13.8,26,13 M20.9,18.7c-1.9,2.3-4.8,3.7-7.9,3.7
	S6.9,21,5.1,18.7c-0.1-0.2-0.2-0.4-0.2-0.6c0-0.2,0.1-0.4,0.3-0.6c0.1-0.1,0.3-0.2,0.5-0.2c0.2,0,0.5,0.1,0.7,0.3c1.5,1.9,4,3,6.6,3
	c2.6,0,5.1-1.1,6.6-3c0.1-0.2,0.4-0.3,0.7-0.3c0.2,0,0.4,0,0.5,0.2c0.2,0.1,0.3,0.3,0.3,0.6S21.1,18.5,20.9,18.7"/>
</svg>
