<?xml version="1.0" encoding="utf-8"?>
<!-- Generator: Adobe Illustrator 24.3.1, SVG Export Plug-In . SVG Version: 6.00 Build 0)  -->
<svg version="1.1" id="Layer_1" xmlns="http://www.w3.org/2000/svg" xmlns:xlink="http://www.w3.org/1999/xlink" x="0px" y="0px"
	 viewBox="0 0 400 400" style="enable-background:new 0 0 400 400;" xml:space="preserve">
<style type="text/css">
	.st0{display:none;}
	.st1{display:inline;}
	.st2{fill:#FFFFFF;stroke:#00838F;stroke-width:6;stroke-linecap:round;stroke-linejoin:round;stroke-miterlimit:10;}
	.st3{fill:#FFFFFF;stroke:#00838F;stroke-miterlimit:10;}
	.st4{fill:none;stroke:#00838F;stroke-width:6;stroke-linecap:round;stroke-linejoin:round;stroke-miterlimit:10;}
	.st5{display:inline;fill:none;stroke:#00838F;stroke-width:6;stroke-linecap:round;stroke-linejoin:round;stroke-miterlimit:10;}
	.st6{fill:#FFFFFF;stroke:#00838F;stroke-width:6;stroke-miterlimit:10;}
</style>
<g class="st0">
	<g class="st1">
		<g>
			<g>
				<path class="st2" d="M304.7,164h-16.3c-3,0-5.5,2.5-5.5,5.5v72.6h-16.5c0,0-15.7,2.8-17.1,11.7c-0.5,3.2-1.1,6.2-1.2,8.9
					l-0.2-0.1c-12.5-3.5-20.8-8-27.9-1.2c-7-2.1-15.2-0.6-15.2-0.6l-1,0.9c-1.4-2.5-3.6-5.6-6.8-9.7c-10.3-13.4-18.4-6.2-32.6,0.5
					l-0.2,0.1c-0.6-2.6-1.7-5.5-2.7-8.6c-2.8-8.5-18.8-8.7-18.8-8.7l-14.7,2.4v-68.3c0-3-2.5-5.5-5.5-5.5h-16.3
					c-1.7,0-2.5-2-1.4-3.2l7.4-7.8l91.6-95.5c0.8-0.9,2.2-0.9,3.1,0l33.4,34.8c1.6,1.7,4.4,0.6,4.4-1.8v-7.8c0-2.3,1.8-4.1,4.1-4.1
					h21.4c2.3,0,4.1,1.8,4.1,4.1v45.1l22.1,23.1l9.5,9.9C307.2,162,306.3,164,304.7,164z"/>
				<path class="st2" d="M282.9,242.1v35.4h-73.6c0,0-0.1,0-0.3,0h-81v-39.7l14.7-2.4c0,0,16,0.2,18.8,8.7c1,3,2.1,6,2.7,8.6
					l0.2-0.1c14.2-6.7,22.3-13.8,32.6-0.5c3.2,4.1,5.4,7.2,6.8,9.7l1-0.9c0,0,8.2-1.6,15.2,0.6c7-6.8,15.4-2.3,27.9,1.2l0.2,0.1
					c0.1-2.7,0.7-5.7,1.2-8.9c1.4-8.9,17.1-11.7,17.1-11.7H282.9z"/>
			</g>
		</g>
	</g>
	<g class="st1">
		<path class="st2" d="M224.3,289.7c0,0,31.1-4.6,29.5,13.6c-1.6,18.2-18.6,15-18.6,15s-14.5,0.1-24.2-0.9c-9.7-1-21.9-6.2-21.9-6.2
			"/>
		<path class="st2" d="M227.2,288c-0.6,0.6-1.2,1.2-1.9,1.7c0,0,0,0,0,0c-1.2,0.9-2.5,1.6-3.9,2.4c-0.6,0.3-1.5,0.8-2.4,1.5
			c-5,3.3-14,10.3-22.9,16.2c-0.2,0.1-0.3,0.2-0.5,0.3c-1.2,0.8-2.5,1.6-3.7,2.4c-5.7,3.5-11.1,6.2-14.8,6.6
			c-2.9,0.3-5.8,0.5-8.5,0.4c-8-0.1-14.6-1.9-16.7-4.3c-1.4-1.7-2.4-3.3-3.1-4.6c-0.6-1.3-0.9-2.2-0.9-2.2l37-30.8l18.9-15.7l1-0.9
			c0,0,8.2-1.6,15.2,0.6c4.4,1.3,8.2,4.1,9.3,9.6c0.5,2.5,0.8,4.6,0.9,6.5C230.5,282.6,229.3,285.7,227.2,288z"/>
		<path class="st2" d="M200.8,275.4c-0.5,0.6-1.2,1.2-2.1,2.1c-0.8,0.7-1.6,1.5-2.6,2.3l0,0c-2.1,1.8-4.8,3.9-7.8,6.2l0,0
			c-11.7,8.9-28.4,20.1-39.5,24.4c-3.1,1.2-5.8,1.9-7.8,1.8c-12.5-0.6-26-8.4-30-13.6c-4-5.1-16-13.4-16-13.4l0.4-0.2l32.6-15.4
			l36.2-17.1l0.2-0.1c14.2-6.7,22.3-13.8,32.6-0.5c3.2,4.1,5.4,7.2,6.8,9.7C206.8,267.4,205.5,270.2,200.8,275.4z"/>
		<path class="st3" d="M127.9,221.4v-52c0-3-2.5-5.5-5.5-5.5h-16.3c-1.7,0-2.5-2-1.4-3.2l7.4-7.8c-15.9-4.1-33-5.4-59.9-1.2
			c-11.5,1.8-20.4,5.5-27,10.3h0C13.7,170.6,9.2,182.5,10,193c0.1,0.8,0.1,1.5,0.3,2.3c0,0,0.1,0.3,0.1,0.8c0,0.1,0,0.1,0,0.2
			c0,0.1,0,0.2,0.1,0.3c0.1,0.3,0.2,0.7,0.3,1c0.2,0.7,0.5,1.6,0.8,2.5c0.1,0.3,0.2,0.6,0.3,0.8c0.5,1.1,1,2.3,1.7,3.4
			c5.7,9.7,16.2,15.9,19.5,19.2c4.4,4.5,28.4,43.9,33.2,50.3c3.8,5.1,15.6,10,28.8,11.1c3.6,0.3,7.3,0.3,11-0.1
			c7.2-0.7,16.2-3.8,24.8-7.5c7.1-3,13.9-6.4,19.3-9.2c3.7-1.9,6.8-3.5,8.8-4.5c5.3-2.6,5.9-6.5,4.9-11.2c-0.6-2.6-1.7-5.5-2.7-8.6
			c-2.8-8.5-18.8-8.7-18.8-8.7l-14.7,2.4"/>
		<path class="st4" d="M127.9,237.7v-68.3c0-3-2.5-5.5-5.5-5.5h-16.3c-1.7,0-2.5-2-1.4-3.2l7.4-7.8c-15.9-4.1-33-5.4-59.9-1.2
			c-11.5,1.8-20.4,5.5-27,10.3h0C13.7,170.6,9.2,182.5,10,193c0.1,0.8,0.1,1.5,0.3,2.3c0,0,0.1,0.3,0.1,0.8c0,0.1,0,0.1,0,0.2
			c0,0.1,0,0.2,0.1,0.3c0.1,0.3,0.2,0.7,0.3,1c0.2,0.7,0.5,1.6,0.8,2.5c0.1,0.3,0.2,0.6,0.3,0.8c0.5,1.1,1,2.3,1.7,3.4
			c5.7,9.7,16.2,15.9,19.5,19.2c4.4,4.5,28.4,43.9,33.2,50.3c3.8,5.1,15.6,10,28.8,11.1c3.6,0.3,7.3,0.3,11-0.1
			c7.2-0.7,16.2-3.8,24.8-7.5c7.1-3,13.9-6.4,19.3-9.2c3.7-1.9,6.8-3.5,8.8-4.5c5.3-2.6,5.9-6.5,4.9-11.2c-0.6-2.6-1.7-5.5-2.7-8.6
			c-1.4-4.3-5.9-6.8-10-8.2c-4.1-1.4-8.6-1.6-12.9-0.6L127.9,237.7l-10.5,5.7c-3.7,2-8,2.6-12.1,1.8c-6.9-1.4-17.3-4.6-23-11.3"/>
		<path class="st4" d="M25.4,162.2c12.4-0.3,37.7,5.6,33.9,31.1c-3.9,25.5-27.3,20.2-37,17.9c-9.6-2.3-12-15.8-12-15.8"/>
	</g>
	<g class="st1">
		<path class="st2" d="M194.7,309.2c0,0-31.4,0.6-26.8,18.3c4.6,17.7,20.8,11.7,20.8,11.7s14.3-2.3,23.7-4.9
			c9.4-2.6,20.6-9.6,20.6-9.6"/>
		<path class="st2" d="M211,277.5c0,0-22-0.6-22.6,14c-0.6,14.6,4.3,17.1,11.3,19.4s36.7,20,48.1,19.4c11.4-0.6,22-4.3,24.3-8
			c2.3-3.7,2.9-7.4,2.9-7.4"/>
		<path class="st2" d="M318.8,284c0,0-7.5,9.8-10.7,15.5c-3.1,5.7-15.2,15.7-27.4,18.3c-1.9,0.4-4.7,0.2-8-0.5
			c-5.7-1.2-13.1-3.8-20.6-7c-12.9-5.4-26.4-12.5-33.2-16.7c-0.1-0.1-0.2-0.1-0.3-0.2c-1.2-0.8-2.3-1.5-3-2.1
			c-5.5-4.4-5.2-12.8-3.9-16.3c1-2.6,1.6-3.2,3.9-7.4c1.4-2.6,2.9-4.6,4.4-6.1c7-6.8,15.4-2.3,27.9,1.2l0.2,0.1l34.9,10.5L318.8,284
			L318.8,284z"/>
		<path class="st2" d="M282.9,243.3l0-73.8c0-3,2.5-5.5,5.5-5.5h16.3c1.7,0,2.5-2,1.3-3.2l-9.5-9.9c11.9-3.6,25.9-5.7,45.3-5.9
			c12.5-0.1,22.4,2.4,29.9,6.6h0c11.8,6.5,17.8,17,18.6,27.1c0.1,1.4,0.1,2.7,0,4.1c0,0,0,0.2,0,0.5c-0.3,3.5-1.4,6.6-2.8,9.6
			c0,0.1-0.1,0.2-0.1,0.3c-4.4,9.2-12.5,16-15,19.5c-3.6,5.1-20.8,48-24.6,55.1c-3.1,6-15.1,13.3-29,16.2h0c-2.7,0.6-5.5,1-8.4,1.2
			c-11.4,0.8-28.5-3.8-41.2-7.7c-6.3-1.9-11.6-3.7-14.5-4.6c-3.2-0.9-5-2.6-5.9-4.6c-0.7-1.6-0.8-3.5-0.8-5.6
			c0.1-2.7,0.7-5.7,1.2-8.9c0.6-4,4.2-6.8,7.9-8.6c4.3-2.1,9.1-3.1,15.2-2.8l24.9,5.5c3.5,0.8,7.1,0.2,10.2-1.5
			c4.9-2.8,11.9-7.6,14.8-13.7"/>
		<path class="st4" d="M371.7,151.6c-15.6,1.6-37.9,10.8-29.9,35.4c8,24.6,30.3,15.4,39.4,11.6c9.1-3.9,9.1-15.8,9.1-15.8"/>
	</g>
</g>
<g class="st0">
	<path class="st5" d="M53.4,346.3c13.4,13.4,35.3,13.4,48.7,0c12.7-11.1,45.4-61,73.1-88.7c27.7-27.7,58.5-46.8,58.5-46.8l78-23.1
		l-33-98L333,71.8c0,0-24.7-40.3-66.3-26.8c-41.6,13.5-46.2,43.6-48.6,55.3c-4.4,21.1-40.5,79-76.7,114.6
		c-36.1,35.6-78.1,69.8-88.1,82.6C39.9,311,39.9,332.8,53.4,346.3z"/>
	<path class="st5" d="M293.6,134.2l56-21c0,0,2.1,39.1-44,56.8"/>
	
		<rect x="234.3" y="126" transform="matrix(-0.9435 0.3314 -0.3314 -0.9435 539.9574 216.6907)" class="st5" width="34.5" height="56.8"/>
	<polyline class="st5" points="228.4,140.6 263.3,135.8 267,146.5 232.2,151.5 235.9,161.8 270.7,157.1 274.6,168.1 239.9,173.4 	
		"/>
	<circle class="st5" cx="81.6" cy="318.3" r="13.9"/>
	<polyline class="st5" points="251.8,137.4 247.5,125.7 235.8,129.8 239.1,139.1 	"/>
	<polyline class="st5" points="267.3,178.9 263.5,169.8 250.8,171.7 255.3,183.1 	"/>
	<path class="st5" d="M284.4,195.8l8.6,25.3c0,0,15.2-4.7,11.2-16.9c-4-12.2-4-13.2-4-13.2"/>
</g>
<g>
	<g>
		<g>
			<path class="st2" d="M149,112.5c4.6-4.7,8.6-12.2,6.4-23.7c-0.3-1.8-0.8-3.5-1.4-5.2c-1.1-3.2-2.8-6.2-4.7-9
				c-1.2-1.8-2.4-3.4-3.9-5.2c-2.6-2.8-5.5-7.3-6-13c-0.5-5.7,1.5-12.8,8.9-20.9"/>
		</g>
		<g>
			<path class="st2" d="M187.2,112.4c4.6-4.7,8.6-12.2,6.4-23.7c-0.3-1.8-0.8-3.5-1.4-5.2c-1.1-3.2-2.8-6.2-4.7-9
				c-1.2-1.8-2.4-3.4-3.9-5.2c-2.6-2.8-5.5-7.3-6-13c-0.5-5.7,1.5-12.8,8.9-20.9"/>
		</g>
		<g>
			<path class="st2" d="M225.3,112.4c4.6-4.7,8.6-12.2,6.4-23.7c-0.3-1.8-0.8-3.5-1.4-5.2c-1.1-3.2-2.8-6.2-4.7-9
				c-1.2-1.8-2.4-3.4-3.9-5.2c-2.6-2.8-5.5-7.3-6-13c-0.5-5.7,1.5-12.8,8.9-20.9"/>
		</g>
	</g>
	<rect x="78.1" y="320" class="st2" width="238.7" height="16.7"/>
	<path class="st2" d="M316.8,341.1L316.8,341.1c-3,0-5.5-2.5-5.5-5.5v-14.4c0-3,2.5-5.5,5.5-5.5l0,0c3,0,5.5,2.5,5.5,5.5v14.4
		C322.2,338.6,319.8,341.1,316.8,341.1z"/>
	<rect x="78.1" y="149.3" class="st2" width="238.7" height="16.7"/>
	<g>
		<g>
			<path class="st6" d="M131.4,341.5c0,12.3-8.4,22.3-18.6,22.3c-10.2,0-18.6-10-18.6-22.3V145.6c0-12.3,8.4-22.3,18.6-22.3
				c10.2,0,18.6,10,18.6,22.3V341.5z"/>
			<path class="st2" d="M131.4,341.5c0,12.3-8.4,22.3-18.6,22.3c-10.2,0-18.6-10-18.6-22.3V145.6c0-12.3,8.4-22.3,18.6-22.3
				c10.2,0,18.6,10,18.6,22.3V341.5z"/>
		</g>
	</g>
	<g>
		<g>
			<path class="st6" d="M184.7,341.5c0,12.3-8.4,22.3-18.6,22.3c-10.2,0-18.6-10-18.6-22.3V145.6c0-12.3,8.4-22.3,18.6-22.3
				c10.2,0,18.6,10,18.6,22.3V341.5z"/>
			<path class="st2" d="M184.7,341.5c0,12.3-8.4,22.3-18.6,22.3c-10.2,0-18.6-10-18.6-22.3V145.6c0-12.3,8.4-22.3,18.6-22.3
				c10.2,0,18.6,10,18.6,22.3V341.5z"/>
		</g>
	</g>
	<g>
		<g>
			<path class="st6" d="M238,341.5c0,12.3-8.4,22.3-18.6,22.3c-10.2,0-18.6-10-18.6-22.3V145.6c0-12.3,8.4-22.3,18.6-22.3
				c10.2,0,18.6,10,18.6,22.3V341.5z"/>
			<path class="st2" d="M238,341.5c0,12.3-8.4,22.3-18.6,22.3c-10.2,0-18.6-10-18.6-22.3V145.6c0-12.3,8.4-22.3,18.6-22.3
				c10.2,0,18.6,10,18.6,22.3V341.5z"/>
		</g>
	</g>
	<g>
		<g>
			<path class="st6" d="M291.3,341.5c0,12.3-8.4,22.3-18.6,22.3c-10.2,0-18.6-10-18.6-22.3V145.6c0-12.3,8.4-22.3,18.6-22.3
				c10.2,0,18.6,10,18.6,22.3V341.5z"/>
			<path class="st2" d="M291.3,341.5c0,12.3-8.4,22.3-18.6,22.3c-10.2,0-18.6-10-18.6-22.3V145.6c0-12.3,8.4-22.3,18.6-22.3
				c10.2,0,18.6,10,18.6,22.3V341.5z"/>
		</g>
	</g>
	<path class="st2" d="M316.8,170.3L316.8,170.3c-3,0-5.5-2.5-5.5-5.5v-14.4c0-3,2.5-5.5,5.5-5.5l0,0c3,0,5.5,2.5,5.5,5.5v14.4
		C322.2,167.9,319.8,170.3,316.8,170.3z"/>
</g>
<g class="st0">
	<g class="st1">
		<path class="st2" d="M291,301.4l-29.4-11.2c-1-0.4-2.1,0-2.7,1l-15.3,27.5c-0.9,1.6-3.3,1.4-3.9-0.3l-33.3-91.6l54.1-19.7
			l33.3,91.6C294.4,300.4,292.7,302.1,291,301.4z"/>
		<path class="st2" d="M156.3,345.9l-13-32.7c-0.5-1.2-1.9-1.7-3-1.1l-31,16.7c-1.7,0.9-3.7-0.8-3-2.6l43.4-119.1l54.1,19.7
			l-43.4,119.1C159.7,347.7,157,347.8,156.3,345.9z"/>
		<path class="st2" d="M202.3,244.5c-9.4,0-15.4-20.3-23.8-23.1c-8.7-2.8-25.5,10-32.8,4.7c-7.4-5.3-0.3-25.3-5.7-32.7
			c-5.3-7.3-26.5-6.7-29.3-15.5c-2.7-8.4,14.6-20.4,14.6-29.8c0-9.4-17.4-21.3-14.6-29.8c2.8-8.7,24-8.2,29.3-15.5
			c5.3-7.4-1.7-27.3,5.7-32.7c7.3-5.3,24.1,7.5,32.8,4.7c8.4-2.7,14.5-23.1,23.8-23.1c9.4,0,15.4,20.3,23.8,23.1
			c8.7,2.8,25.5-10,32.8-4.7c7.4,5.3,0.3,25.3,5.7,32.7c5.3,7.3,26.5,6.7,29.3,15.5c2.7,8.4-14.6,20.4-14.6,29.8
			c0,9.4,17.4,21.3,14.6,29.8c-2.8,8.7-24,8.2-29.3,15.5c-5.3,7.4,1.7,27.3-5.7,32.7c-7.3,5.3-24.1-7.5-32.8-4.7
			C217.6,224.2,211.6,244.5,202.3,244.5z"/>
		
			<ellipse transform="matrix(0.7071 -0.7071 0.7071 0.7071 -45.5503 186.4267)" class="st2" cx="202.3" cy="148.2" rx="55.7" ry="55.7"/>
	</g>
	<polyline class="st5" points="184.8,131.8 203.7,107.3 203.7,180.5 	"/>
	<line class="st5" x1="190.9" y1="180.5" x2="215.6" y2="180.5"/>
</g>
<g class="st0">
	<g class="st1">
		<g>
			<g>
				<path class="st2" d="M306.5,123.3l-17.2-17.9V80.9c0-1.2-1-2.2-2.2-2.2h-11.6c-1.2,0-2.2,1-2.2,2.2v4.2c0,1.3-1.5,1.9-2.4,1
					L252,66.3l-54.6,56.9c-0.6,0.6-0.2,1.7,0.7,1.7h8.8c1.6,0,3,1.3,3,3v58.6H294V128c0-1.6,1.3-3,3-3h8.8
					C306.7,125,307.1,123.9,306.5,123.3z"/>
				<path class="st4" d="M245.7,186.6h-21.2V162c0-5.9,4.7-10.6,10.6-10.6l0,0c5.9,0,10.6,4.7,10.6,10.6V186.6z"/>
				<rect x="260.6" y="136.3" class="st4" width="20.7" height="25.8"/>
			</g>
		</g>
	</g>
	<g class="st1">
		<g>
			<path class="st4" d="M216.2,290.5l-44.1-18.8c-11.7-5-25.2,0.5-30.2,12.1l0,0c-1.3,3-5,4.1-7.7,2.2
				c-10.5-7.2-19.6-15.8-27.2-25.8c-10.7-14-17.7-29.6-22.1-44.6c-0.9-3.1,1.2-6.2,4.4-6.6l0,0c12-1.3,20.6-12.1,19.3-24l-5-45
				c-1.3-11.9-12.1-20.5-24.1-19.2l-22.2,4.2c-8.5,0.9-18.6,4.1-18.6,15.9h0c-0.5,16.4-0.9,97.3,36.8,142.9
				c22,26.7,49.7,42.5,85.9,58.2l27.7,11.7c11.7,5,25.2-0.5,30.2-12.2l9-21.2C233.3,309,227.8,295.5,216.2,290.5z"/>
		</g>
		<g>
			<g>
				<path class="st4" d="M361.7,128.9c0-47.5-50.9-85.9-113.6-85.9s-113.6,38.5-113.6,85.9c0,35.5,28.4,65.9,68.9,79
					c2.5,0.8,3.5,3.9,1.8,6c-8.9,10.9-22,19.7-30,24.6c-1.9,1.2-1.1,4.1,1.2,4.1c16.4-0.4,53-3.8,75.8-23.9c2.8-2.5,6.3-4.1,10-4.5
					C318.2,209,361.7,172.8,361.7,128.9z"/>
			</g>
		</g>
	</g>
</g>
</svg>
