<?xml version="1.0" encoding="utf-8"?>
<!-- Generator: Adobe Illustrator 24.3.1, SVG Export Plug-In . SVG Version: 6.00 Build 0)  -->
<svg version="1.1" id="Layer_1" xmlns="http://www.w3.org/2000/svg" xmlns:xlink="http://www.w3.org/1999/xlink" x="0px" y="0px"
	 viewBox="0 0 54 54" style="enable-background:new 0 0 54 54;" xml:space="preserve">
<style type="text/css">
	.st0{fill:#E7362C;}
</style>
<path class="st0" d="M53.5,27.1c0-0.9-0.4-1.6-1-2.2L29,2.1c-0.5-0.5-1.3-0.9-2.1-0.9c-0.8,0-1.5,0.3-2.1,0.9L16,10.7V9.2
	c0-1.6-1.3-3-3-3H9.7c-1.6,0-3,1.3-3,3l0,10.5L1.4,25c-0.5,0.5-0.9,1.3-0.9,2.1c0,1.6,1.3,3,3,3h3.1l0,19.8c0,1.6,1.3,3,3,3H25h19.3
	c1.6,0,3-1.3,3-3l0-19.8h3.2C52.2,30,53.5,28.7,53.5,27.1 M43.2,38.7c-3.8,4.7-9.8,7.5-16.2,7.5c-6.4,0-12.5-2.8-16.2-7.5
	c-0.3-0.4-0.4-0.8-0.4-1.3c0.1-0.5,0.3-0.9,0.6-1.2c0.3-0.2,0.7-0.4,1.1-0.4c0.5,0,1,0.2,1.4,0.7c3.1,3.9,8.1,6.2,13.5,6.2
	c5.3,0,10.4-2.3,13.5-6.2c0.3-0.4,0.8-0.7,1.4-0.7c0.4,0,0.8,0.1,1.1,0.4c0.4,0.3,0.6,0.7,0.6,1.2C43.6,37.9,43.5,38.3,43.2,38.7"/>
</svg>
